<?xml version="1.0" encoding="utf-8"?>
<!-- Generator: Adobe Illustrator 19.2.1, SVG Export Plug-In . SVG Version: 6.00 Build 0)  -->
<svg version="1.1" id="Layer_1" xmlns="http://www.w3.org/2000/svg" xmlns:xlink="http://www.w3.org/1999/xlink" x="0px" y="0px"
	 viewBox="0 0 100 100" style="enable-background:new 0 0 100 100;" xml:space="preserve">
<path d="M78.5,8.4C75,3.3,69.1,0,62.5,0h-25C26.8,0,18.1,8.7,18.1,19.4h5.6c0-7.7,6.2-13.9,13.9-13.9h25c4.4,0,8.3,2,10.8,5.2
	L70.6,12l5,3.6l5,3.6l0.6-6.2l0.6-6.2L78.5,8.4z"/>
<path d="M77.8,80.6c0,7.7-6.2,13.9-13.9,13.9h-25c-4.4,0-8.3-2-10.8-5.2l2.7-1.2l-5-3.6l-5-3.6l-0.6,6.2l-0.6,6.2l3.5-1.5
	c3.5,5.1,9.4,8.4,16,8.4h25c10.7,0,19.4-8.7,19.4-19.4C83.3,80.6,77.8,80.6,77.8,80.6z"/>
<path d="M47.1,55L47.1,55l-5.4-11.9c0-11.5-9.3-20.8-20.8-20.8S0,31.5,0,43.1c0,6.8,3.3,12.8,8.3,16.6v2.8v15.3h22.2v-6.9h2.8
	c4.6,0,8.3-3.7,8.3-8.3v-5.6h4.2c0.8,0,1.4-0.6,1.4-1.4C47.2,55.4,47.2,55.2,47.1,55z M32.4,42.9c-1.1,0-2.2-0.3-3-0.9
	c-0.9,0.6-1.9,0.9-3,0.9c-1.1,0-2.2-0.3-3-0.9c-0.6,0.7-1.5,1.2-2.3,1.5c-1.7,0.7-3,2.7-3,4.9v5.8h-2V48c0-2.1-0.8-3.9-2.4-4.9
	c-0.5-0.3-0.9-0.6-1.2-0.9c0,0-0.1-0.1-0.1-0.1c-0.4-0.5-0.7-1-0.8-1.6c0.4-0.1,0.8-0.2,1.3-0.2c0.5,0,1.1,0.1,1.6,0.3
	c0.3,0.1,0.6,0,0.7-0.3c0.1-0.3,0-0.6-0.3-0.7c-0.7-0.3-1.4-0.4-2-0.4c-0.5,0-0.9,0.1-1.4,0.2c0-2.4,1.9-4.3,4.3-4.3c0,0,0,0,0,0
	c0,0,0,0,0,0c0.9,0,1.7-0.2,2.4-0.6c0.7,0.8,1,1.8,1,2.8c0,0,0,0,0,0.1c0,0,0,0,0,0c0,1-0.4,2.1-1.2,2.9h0c-0.2,0.2-0.2,0.6,0,0.8
	c0.1,0.1,0.3,0.2,0.4,0.2c0.1,0,0.3-0.1,0.4-0.2c0.9-0.9,1.4-2,1.5-3.2c0.3-0.1,0.6-0.1,0.9-0.1c0.7,0,1.4,0.2,2,0.5
	c0.1,0,0.2,0.1,0.3,0.1c0.2,0,0.4-0.1,0.5-0.3c0.1-0.3,0-0.6-0.2-0.8c-0.8-0.4-1.7-0.6-2.6-0.6c-0.3,0-0.6,0-0.9,0.1
	c-0.1-1-0.5-2-1.2-2.8c0.7-0.5,1.2-1.2,1.6-2c0.9,0.7,2.1,1,3.2,1c0.4,0,0.8,0,1.2-0.1c0.4,2.7,2.6,4.7,5.4,4.7h0h0h0.1
	c1.2,0,2.2,0.5,3,1.2c0.1,0.1,0.3,0.2,0.4,0.2c0.2,0,0.3-0.1,0.4-0.2c0.2-0.2,0.2-0.6,0-0.8c-1-1-2.3-1.5-3.8-1.5h-0.1c0,0,0,0,0,0
	c-0.4,0-0.8-0.1-1.1-0.1c0.5-0.7,1.3-1.3,2.2-1.6c0.3-0.1,0.5-0.4,0.4-0.7c-0.1-0.3-0.4-0.5-0.7-0.4c-1.2,0.4-2.2,1.2-2.9,2.2
	c-1.2-0.7-2-1.9-2.1-3.3c0.6-0.3,1.1-0.6,1.6-1.1c0.2-0.2,0.2-0.6,0-0.8c-0.2-0.2-0.6-0.2-0.8,0c-0.5,0.5-1,0.8-1.6,1c0,0,0,0,0,0
	c-0.5,0.2-1,0.3-1.5,0.3c-1,0-2-0.4-2.8-1.1c0.1-0.3,0.1-0.7,0.1-1.1c0-0.3-0.3-0.6-0.6-0.6c-0.3,0-0.6,0.3-0.6,0.6
	c0,2.2-1.6,4-3.8,4.3c-0.1-1.3-0.7-2.4-1.6-3.2c-0.2-0.2-0.6-0.2-0.8,0c-0.2,0.2-0.2,0.6,0,0.8c0.7,0.7,1.1,1.5,1.2,2.5
	c-1.8,0.2-3.4,1.3-4.2,2.8c-1-0.1-1.9-0.6-2.6-1.4c-0.2-0.2-0.6-0.2-0.8,0c-0.2,0.2-0.3,0.6,0,0.8c0.8,0.9,1.8,1.5,3,1.7
	c-0.1,0.5-0.2,1-0.2,1.5c0,0,0,0,0,0c0,1.1,0.3,2.1,0.8,2.9c-1,0.5-1.9,1.2-2.5,2.3h0c-0.2,0.3-0.1,0.6,0.2,0.8
	c0.1,0.1,0.2,0.1,0.3,0.1c0.2,0,0.4-0.1,0.5-0.3c0.5-0.9,1.4-1.6,2.3-1.9c0.4,0.3,0.8,0.6,1.2,0.9c1.3,0.8,1.9,2,1.9,3.9v6.1h-2
	c-0.4-2.6-1.7-4.8-3.9-6.1v0c-1.8-0.8-3.1-2.5-3.3-4.6c-0.9-1-1.5-2.3-1.5-3.7c0-1.2,0.4-2.4,1.1-3.3C5.2,36,5.1,35.5,5.1,35
	c0-2.4,1.6-4.5,3.8-5.2c0.8-1.9,2.7-3.2,4.9-3.2c0.4,0,0.9,0.1,1.3,0.2c1-0.9,2.3-1.5,3.7-1.5c1.1,0,2.1,0.3,3,0.9
	c0.8-0.4,1.6-0.6,2.6-0.6c1.9,0,3.5,0.9,4.5,2.4c0.1,0,0.3,0,0.4,0c2.6,0,4.8,1.8,5.3,4.3c2,0.8,3.4,2.8,3.4,5.1
	C37.9,40.4,35.4,42.9,32.4,42.9z M37.2,48.6c-1.3,0-2.4-1.1-2.4-2.4s1.1-2.4,2.4-2.4s2.4,1.1,2.4,2.4S38.5,48.6,37.2,48.6z"/>
<path d="M52.8,55.6c0,0.8,0.6,1.4,1.4,1.4h4.2v5.6c0,4.6,3.7,8.3,8.3,8.3h2.8v6.9h22.2V62.5v-2.8c5.1-3.8,8.3-9.8,8.3-16.6
	c0-11.5-9.3-20.8-20.8-20.8s-20.8,9.3-20.8,20.8L52.9,55h0C52.8,55.2,52.8,55.4,52.8,55.6z M62.1,37.3c0-2.3,1.4-4.2,3.4-5.1
	c0.5-2.4,2.7-4.3,5.3-4.3c0.1,0,0.3,0,0.4,0c1-1.4,2.6-2.4,4.5-2.4c0.9,0,1.8,0.2,2.6,0.6c0.9-0.6,1.9-0.9,3-0.9
	c1.4,0,2.7,0.6,3.7,1.5c0.4-0.1,0.8-0.2,1.3-0.2c2.2,0,4.1,1.3,4.9,3.2c2.2,0.7,3.8,2.7,3.8,5.2c0,0.5-0.1,1-0.2,1.4
	c0.7,0.9,1.1,2.1,1.1,3.3c0,1.4-0.6,2.7-1.5,3.7c-0.2,2.1-1.5,3.8-3.3,4.6v0c-2.2,1.3-3.5,3.5-3.9,6.1h-2V48c0-1.9,0.6-3.1,1.9-3.9
	c0.5-0.3,0.9-0.6,1.2-0.9c0.9,0.3,1.8,1,2.3,1.9c0.1,0.2,0.3,0.3,0.5,0.3c0.1,0,0.2,0,0.3-0.1c0.3-0.2,0.4-0.5,0.2-0.8h0
	c-0.6-1-1.5-1.8-2.5-2.3c0.5-0.8,0.8-1.8,0.8-2.9c0,0,0,0,0,0c0-0.5-0.1-1-0.2-1.5c1.2-0.2,2.2-0.8,3-1.7c0.2-0.2,0.2-0.6,0-0.8
	c-0.2-0.2-0.6-0.2-0.8,0c-0.7,0.7-1.6,1.2-2.6,1.4c-0.8-1.5-2.4-2.6-4.2-2.8c0.1-1,0.6-1.8,1.2-2.5c0.2-0.2,0.2-0.6,0-0.8
	c-0.2-0.2-0.6-0.2-0.8,0c-0.8,0.8-1.4,2-1.6,3.2c-2.1-0.3-3.8-2.1-3.8-4.3c0-0.3-0.3-0.6-0.6-0.6c-0.3,0-0.6,0.3-0.6,0.6
	c0,0.4,0,0.7,0.1,1.1c-0.8,0.7-1.8,1.1-2.8,1.1c-0.5,0-1-0.1-1.5-0.3c0,0,0,0,0,0c-0.6-0.2-1.1-0.5-1.6-1c-0.2-0.2-0.6-0.2-0.8,0
	c-0.2,0.2-0.2,0.6,0,0.8c0.5,0.5,1,0.8,1.6,1.1c-0.1,1.4-0.9,2.6-2.1,3.3c-0.7-1-1.7-1.8-2.9-2.2c-0.3-0.1-0.6,0.1-0.7,0.4
	c-0.1,0.3,0.1,0.6,0.4,0.7c0.9,0.3,1.7,0.9,2.2,1.6c-0.4,0.1-0.7,0.1-1.1,0.1c0,0,0,0,0,0h-0.1c-1.5,0-2.8,0.6-3.8,1.5
	c-0.2,0.2-0.2,0.6,0,0.8c0.1,0.1,0.3,0.2,0.4,0.2c0.1,0,0.3-0.1,0.4-0.2c0.8-0.8,1.8-1.2,3-1.2h0.1h0h0c2.8,0,5-2,5.4-4.7
	c0.4,0.1,0.8,0.1,1.2,0.1c1.1,0,2.2-0.3,3.2-1c0.3,0.8,0.9,1.5,1.6,2c-0.7,0.8-1.1,1.8-1.2,2.8c-0.3,0-0.6-0.1-0.9-0.1
	c-0.9,0-1.7,0.2-2.6,0.6c-0.3,0.1-0.4,0.5-0.2,0.8c0.1,0.2,0.3,0.3,0.5,0.3c0.1,0,0.2,0,0.3-0.1c0.7-0.3,1.3-0.5,2-0.5
	c0.3,0,0.6,0,0.9,0.1c0.1,1.2,0.6,2.3,1.5,3.2c0.1,0.1,0.3,0.2,0.4,0.2c0.1,0,0.3-0.1,0.4-0.2c0.2-0.2,0.2-0.6,0-0.8h0
	c-0.8-0.8-1.2-1.8-1.2-2.9c0,0,0,0,0,0c0,0,0,0,0-0.1c0-1,0.3-2,1-2.8c0.7,0.4,1.6,0.6,2.4,0.6c0,0,0,0,0,0c0,0,0,0,0,0
	c2.4,0,4.3,1.9,4.3,4.3c-0.5-0.1-0.9-0.2-1.4-0.2c-0.7,0-1.4,0.1-2,0.4c-0.3,0.1-0.4,0.5-0.3,0.7c0.1,0.3,0.5,0.4,0.7,0.3
	c0.5-0.2,1.1-0.3,1.6-0.3c0.4,0,0.9,0.1,1.3,0.2c-0.1,0.6-0.4,1.2-0.8,1.6c0,0-0.1,0.1-0.1,0.1c-0.3,0.3-0.7,0.6-1.2,0.9
	c-1.7,1-2.4,2.7-2.4,4.9v6.1h-2v-5.8c0-2.1-1.3-4.2-3-4.9c-0.8-0.3-1.6-0.8-2.3-1.5c-0.9,0.6-1.9,0.9-3,0.9c-1.1,0-2.2-0.3-3-0.9
	c-0.9,0.6-1.9,0.9-3,0.9C64.6,42.9,62.1,40.4,62.1,37.3z M60.4,46.2c0-1.3,1.1-2.4,2.4-2.4s2.4,1.1,2.4,2.4s-1.1,2.4-2.4,2.4
	S60.4,47.5,60.4,46.2z"/>
</svg>
