<?xml version="1.0" encoding="utf-8"?>
<!-- Generator: Adobe Illustrator 19.2.1, SVG Export Plug-In . SVG Version: 6.00 Build 0)  -->
<svg version="1.1" id="Layer_1" xmlns="http://www.w3.org/2000/svg" xmlns:xlink="http://www.w3.org/1999/xlink" x="0px" y="0px"
	 viewBox="0 0 48 48" style="enable-background:new 0 0 48 48;" xml:space="preserve">
<g>
	<path d="M35.8,48H1c-0.6,0-1-0.4-1-1V23c0-0.4,0.2-0.7,0.6-0.9l22.8-10.3c0.2-0.1,0.5-0.1,0.7,0l12,4.2c0.4,0.1,0.7,0.5,0.7,0.9V47
		C36.8,47.6,36.4,48,35.8,48z M2,46h32.8V17.6l-11-3.8L2,23.6V46z"/>
	<path d="M23.7,48c-0.6,0-1-0.4-1-1V13.5c0-0.6,0.4-1,1-1s1,0.4,1,1V47C24.7,47.6,24.3,48,23.7,48z"/>
	<g>
		<path d="M4.5,28c-0.4,0-0.8-0.3-1-0.7c-0.2-0.5,0.1-1.1,0.7-1.3l14.2-4.4c0.5-0.2,1.1,0.1,1.3,0.7c0.2,0.5-0.1,1.1-0.7,1.3L4.8,28
			C4.7,28,4.6,28,4.5,28z"/>
		<path d="M4.5,33.3c-0.5,0-0.9-0.3-1-0.8s0.2-1.1,0.8-1.2l14.2-3c0.5-0.1,1.1,0.2,1.2,0.8c0.1,0.5-0.2,1.1-0.8,1.2l-14.2,3
			C4.6,33.3,4.6,33.3,4.5,33.3z"/>
		<path d="M4.5,38.5c-0.5,0-0.9-0.4-1-0.9s0.3-1,0.9-1.1L18.6,35c0.5-0.1,1,0.3,1.1,0.9c0.1,0.5-0.3,1-0.9,1.1L4.5,38.5L4.5,38.5z"
			/>
		<path d="M18.7,43.8H4.5c-0.6,0-1-0.4-1-1s0.4-1,1-1h14.2c0.6,0,1,0.4,1,1S19.3,43.8,18.7,43.8z"/>
	</g>
	<path d="M47,48H31.7c-0.6,0-1-0.4-1-1s0.4-1,1-1H46V6.5L32.4,2.1l-13,5.8v6.7c0,0.6-0.4,1-1,1s-1-0.4-1-1V7.2
		c0-0.4,0.2-0.8,0.6-0.9l13.9-6.2C32.1,0,32.4,0,32.6,0l14.7,4.8C47.7,5,48,5.4,48,5.8V47C48,47.6,47.6,48,47,48z"/>
	<path d="M41,13.7c-0.6,0-1-0.4-1-1V8.8c0-0.6,0.4-1,1-1s1,0.4,1,1v3.9C42,13.3,41.6,13.7,41,13.7z"/>
	<path d="M41,20.7c-0.6,0-1-0.4-1-1v-3.9c0-0.6,0.4-1,1-1s1,0.4,1,1v3.9C42,20.3,41.6,20.7,41,20.7z"/>
	<path d="M41,27.8c-0.6,0-1-0.4-1-1v-4c0-0.6,0.4-1,1-1s1,0.4,1,1v4C42,27.4,41.6,27.8,41,27.8z"/>
	<path d="M41,34.8c-0.6,0-1-0.4-1-1v-3.9c0-0.6,0.4-1,1-1s1,0.4,1,1v3.9C42,34.4,41.6,34.8,41,34.8z"/>
	<path d="M41,41.8c-0.6,0-1-0.4-1-1v-3.9c0-0.6,0.4-1,1-1s1,0.4,1,1v3.9C42,41.4,41.6,41.8,41,41.8z"/>
</g>
</svg>
