<?xml version="1.0" encoding="utf-8"?>
<!-- Generator: Adobe Illustrator 19.2.1, SVG Export Plug-In . SVG Version: 6.00 Build 0)  -->
<svg version="1.1" id="Layer_1" xmlns="http://www.w3.org/2000/svg" xmlns:xlink="http://www.w3.org/1999/xlink" x="0px" y="0px"
	 viewBox="0 0 86.3 87.5" style="enable-background:new 0 0 86.3 87.5;" xml:space="preserve">
<path d="M76.1,17.4c0-1.6-1.6-2-2.8-2.3v4.5C74.6,19.6,76.1,19,76.1,17.4z"/>
<path d="M71.9,7.8c-1.6,0-2.6,1-2.6,1.9c0,1.1,0.9,1.8,2.6,2.1V7.8L71.9,7.8z"/>
<path d="M72.5,27.7c7.6,0,13.8-6.2,13.8-13.8S80.1,0,72.5,0c-7.6,0-13.8,6.2-13.8,13.8C58.7,21.5,64.9,27.7,72.5,27.7z M66.5,10.3
	c0-3.1,2.6-4.7,5.4-4.8V4.3c0-0.4,0.3-0.8,0.7-0.8c0.4,0,0.7,0.4,0.7,0.8v1.2c1.8,0,5.4,1.2,5.4,3.4c0,0.9-0.7,1.4-1.4,1.4
	c-1.5,0-1.5-2.4-4-2.5v4.4c3,0.6,5.7,1.5,5.7,5c0,3.1-2.3,4.6-5.7,4.8v1.4c0,0.4-0.3,0.8-0.7,0.8c-0.4,0-0.7-0.4-0.7-0.8V22
	c-3.9-0.1-5.8-2.4-5.8-4.2c0-0.9,0.6-1.4,1.4-1.4c2.6,0,0.6,3.2,4.4,3.3v-4.8C68.5,14.3,66.5,12.8,66.5,10.3z"/>
<path d="M16.9,61.6H5c-2.2,0-4,1.8-4,4v17.9c0,2.2,1.8,4,4,4h11.9c2.2,0,4-1.8,4-4v-18C20.9,63.3,19.1,61.6,16.9,61.6z"/>
<path d="M47.7,47.7H35.8c-2.2,0-4,1.8-4,4v31.8c0,2.2,1.8,4,4,4h11.9c2.2,0,4-1.8,4-4V51.6C51.7,49.4,49.9,47.7,47.7,47.7z"/>
<path d="M78.5,31.8H66.6c-2.2,0-4,1.8-4,4v47.6c0,2.2,1.8,4,4,4h11.9c2.2,0,4-1.8,4-4V35.8C82.5,33.6,80.7,31.8,78.5,31.8z"/>
<path d="M54.7,20.4l-9.9-2.1c-0.8-0.2-1.5,0.1-2,0.8c-0.5,0.6-0.5,1.4-0.2,2.1l2.2,4.1L1.1,47.9c-1,0.5-1.4,1.7-0.9,2.7
	c0.4,0.7,1,1.1,1.8,1.1c0.3,0,0.6-0.1,0.9-0.2l43.8-22.7l2,3.8c0.3,0.7,1,1.1,1.8,1.1h0.1c0.8,0,1.4-0.5,1.7-1.2l3.8-9.3
	c0.2-0.5,0.2-1.2-0.1-1.7C55.7,20.9,55.2,20.5,54.7,20.4z"/>
</svg>
