<svg id="Layer_1" data-name="Layer 1" xmlns="http://www.w3.org/2000/svg" viewBox="0 0 66.61 39"><title>logo</title><path d="M34.11,20.21H53.28c1.6-1.11,2.52-2.37,2.52-3.71s-1-2.78-2.87-4H45.65V8.91h6.29c5.91,1.85,9.66,4.56,9.66,7.58s-3.76,5.74-9.69,7.59H34.11V34a5.08,5.08,0,0,0,5.09,5h6.55a6.06,6.06,0,0,1,6.07-6h9.71a5.08,5.08,0,0,0,5.08-5.08h0V5.09A5.09,5.09,0,0,0,61.52,0H39.2a5.09,5.09,0,0,0-5.09,5.09V20.21Z" transform="translate(0 0)"/><path d="M32.5,5.08A5.08,5.08,0,0,0,27.42,0H5.08A5.08,5.08,0,0,0,0,5.08H0v22.8A5.08,5.08,0,0,0,5,33H27.41a5.09,5.09,0,0,0,5.09-5.09V24.07H14.63A21.29,21.29,0,0,1,6.94,20.2H32.5V5.08ZM20.93,12.54H7.21A22,22,0,0,1,14.6,8.91h6.33v3.63Z" transform="translate(0 0)"/></svg>