<?xml version="1.0" encoding="utf-8"?>
<!-- Generator: Adobe Illustrator 21.0.0, SVG Export Plug-In . SVG Version: 6.00 Build 0)  -->
<svg version="1.1" id="Layer_1" xmlns="http://www.w3.org/2000/svg" xmlns:xlink="http://www.w3.org/1999/xlink" x="0px" y="0px"
	 viewBox="0 0 70.4 90" style="enable-background:new 0 0 70.4 90;" xml:space="preserve">
<g>
	<path d="M64.7,9.6c0.1,0.1,0.3,0.2,0.5,0.2c0.2,0,0.4-0.1,0.5-0.2L70.3,5c0.2-0.2,0.2-0.5,0.1-0.7C70.3,4,70,3.9,69.8,3.9h-1.6V0.7
		c0-0.4-0.3-0.7-0.7-0.7H63c-0.4,0-0.7,0.3-0.7,0.7v3.2h-1.6c-0.3,0-0.5,0.2-0.6,0.4C60,4.5,60,4.8,60.2,5L64.7,9.6z"/>
	<path d="M42.9,40.9c-1.9-2.1-3.7-4.4-5.4-6.5c-0.8-1-1.5-1.9-2.2-2.8l-0.1-0.1c1-2.9,1.6-5.4,1.8-7.2c0.3-4.6-0.2-7.6-1.6-9.1
		c-0.9-1-2.4-1.4-3.7-0.9c-1,0.3-2.2,1.2-3,3.4c-1.1,3.4-0.6,9.3,2.6,14.3c-1.4,3.6-3.3,7.8-5.5,11.8c-4.1,1.4-7.3,3.3-9.7,5.6
		c-3.1,3-4.3,5.9-3.4,8.1c0.5,1.3,1.8,2.2,3.4,2.2c1.1,0,2.3-0.4,3.4-1.1c2.9-1.9,6.7-8.2,8.7-11.8c4.2-1.3,8.3-1.8,10.4-2
		c1-0.1,1.9-0.2,2.8-0.2c3.7,3.9,6.7,5.9,9.5,6.4C51.4,51,52,51,52.5,51c2.3,0,4.1-0.9,5-2.4c0.7-1.1,0.6-2.5,0-3.7
		c-1.5-2.7-6.2-4.1-13.1-4.1C43.9,40.9,43.4,40.9,42.9,40.9z M17.6,55.6c-0.5,0.4-1.1,0.6-1.5,0.6c-0.1,0-0.1,0-0.2,0
		c-0.1-0.3,0.2-1.9,2.6-4.2c1.1-1.1,2.6-2.1,4.3-3.1C20.7,52.4,18.7,54.9,17.6,55.6z M32,18.8c0.3-0.8,0.6-1.1,0.8-1.2c0,0,0,0,0,0
		c0.2,0.2,1,1.4,0.6,6.4c-0.1,0.9-0.3,2-0.6,3.3C31.6,24.3,31.3,21,32,18.8z M38.3,41.2c-1.9,0.2-4.7,0.5-7.9,1.3
		c1.2-2.5,2.4-4.9,3.3-7.2c0.3,0.4,0.7,0.8,1,1.3c1.1,1.4,2.4,3.1,3.8,4.6L38.3,41.2z M54.5,46.7c0.1,0.1,0.1,0.1,0,0.2
		c-0.1,0.3-0.8,0.7-2,0.7c-0.3,0-0.7,0-1-0.1c-1.4-0.3-3.1-1.3-5.1-3C51.8,44.7,54,46,54.5,46.7z"/>
	<path d="M50.3,0H5C2.3,0,0,2.2,0,5V85c0,2.8,2.3,5,5,5h60.4c2.8,0,5-2.3,5-5V20.1L50.3,0z M50.3,7.1l13,13h-13V7.1z M65.4,85H5V5
		h40.2v15.1c0,2.8,2.2,5,5,5h15.1L65.4,85L65.4,85z"/>
	<path d="M26.9,64.4c-0.4-0.4-0.9-0.6-1.5-0.8c-0.6-0.2-1.3-0.2-2.4-0.2h-3.3c-0.6,0-1.1,0.1-1.4,0.4c-0.3,0.3-0.5,0.8-0.5,1.4v9.9
		c0,0.6,0.1,1,0.4,1.3c0.3,0.3,0.7,0.5,1.1,0.5c0.4,0,0.8-0.2,1.1-0.5c0.3-0.3,0.4-0.8,0.4-1.4v-3.4h2.1c1.7,0,2.9-0.4,3.8-1.1
		c0.9-0.7,1.3-1.8,1.3-3.2c0-0.6-0.1-1.2-0.3-1.8C27.6,65.2,27.3,64.7,26.9,64.4z M24.7,68.5c-0.2,0.3-0.5,0.4-0.8,0.5
		c-0.4,0.1-0.9,0.2-1.5,0.2h-1.5v-3.4h1.5c1.4,0,1.9,0.3,2.1,0.5c0.3,0.3,0.4,0.7,0.4,1.2C25,67.9,24.9,68.3,24.7,68.5z"/>
	<path d="M39.3,64.6c-0.5-0.5-1.2-0.8-1.8-1c-0.7-0.2-1.4-0.3-2.3-0.3h-3.4c-0.6,0-1.1,0.2-1.4,0.5s-0.5,0.8-0.5,1.4v9.4
		c0,0.4,0,0.8,0.1,1.1c0.1,0.3,0.3,0.6,0.6,0.8c0.3,0.2,0.7,0.3,1.2,0.3h3.4c0.6,0,1.2,0,1.6-0.1c0.5-0.1,1-0.2,1.4-0.4
		c0.4-0.2,0.8-0.5,1.2-0.8c0.5-0.4,0.8-0.9,1.1-1.4c0.3-0.5,0.5-1.1,0.6-1.8c0.1-0.7,0.2-1.4,0.2-2.2C41.4,67.6,40.7,65.8,39.3,64.6
		z M37,73.6c-0.2,0.1-0.4,0.3-0.6,0.3c-0.2,0.1-0.5,0.1-0.7,0.2c-0.2,0-0.6,0-1,0H33v-8.2h1.5c0.8,0,1.4,0.1,2,0.2
		c0.5,0.2,0.9,0.5,1.3,1.1c0.4,0.6,0.5,1.5,0.5,2.7C38.2,71.7,37.8,72.9,37,73.6z"/>
	<path d="M51.1,63.3H45c-0.4,0-0.7,0.1-1,0.2c-0.3,0.1-0.5,0.3-0.6,0.6c-0.1,0.3-0.2,0.6-0.2,1v9.9c0,0.6,0.1,1.1,0.4,1.4
		c0.3,0.3,0.7,0.5,1.1,0.5c0.4,0,0.8-0.2,1.1-0.5c0.3-0.3,0.4-0.8,0.4-1.4v-4h4c0.5,0,0.8-0.1,1.1-0.3c0.3-0.2,0.4-0.5,0.4-0.9
		c0-0.4-0.1-0.7-0.4-0.9c-0.2-0.2-0.6-0.3-1.1-0.3h-4v-2.8h4.9c0.5,0,0.8-0.1,1.1-0.3c0.3-0.2,0.4-0.5,0.4-0.9
		c0-0.4-0.1-0.7-0.4-0.9C52,63.4,51.6,63.3,51.1,63.3z"/>
</g>
</svg>
