<?xml version="1.0" encoding="utf-8"?>
<svg version="1.1" id="Layer_1" xmlns="http://www.w3.org/2000/svg" xmlns:xlink="http://www.w3.org/1999/xlink" x="0px" y="0px"
	 viewBox="0 0 90 67.3" style="enable-background:new 0 0 90 67.3;" xml:space="preserve">
<path d="M80.2,0H58.7c-5.4,0-9.8,4.4-9.8,9.8v21.5c0,5.4,4.4,9.8,9.8,9.8h17.6v1.3c0,6.2-5,11.2-11.2,11.2c-3.8,0-6.8,3.1-6.8,6.8
	c0,3.8,3.1,6.8,6.8,6.8C78.8,67.3,90,56.1,90,42.4V9.8C90,4.4,85.6,0,80.2,0z"/>
<path d="M31.3,0H9.8C4.4,0,0,4.4,0,9.8v21.5c0,5.4,4.4,9.8,9.8,9.8h17.6v1.3c0,6.2-5,11.2-11.2,11.2c-3.8,0-6.8,3.1-6.8,6.8
	c0,3.8,3.1,6.8,6.8,6.8c13.8,0,24.9-11.2,24.9-24.9V9.8C41.1,4.4,36.7,0,31.3,0z"/>
</svg>
