<?xml version="1.0" encoding="utf-8"?>
<!-- Generator: Adobe Illustrator 19.2.1, SVG Export Plug-In . SVG Version: 6.00 Build 0)  -->
<svg version="1.1" id="Layer_1" xmlns="http://www.w3.org/2000/svg" xmlns:xlink="http://www.w3.org/1999/xlink" x="0px" y="0px"
	 viewBox="0 0 206.5 129.1" style="enable-background:new 0 0 206.5 129.1;" xml:space="preserve">
<path d="M204.9,15.8c-0.5-2-1.4-1.2-2.1-2.5c-0.9-1.8-0.6-4-1.6-5.4c-0.5-1-1.5-1.2-2.5-1.7c-0.5,0.7-0.9,0.8-1.6,1.2
	c-0.4-0.1-0.2,0.1-0.4-0.4c-1,0.1-1,0.2-1.7,0.4c-0.8,3.1-1.8,8.1-2.1,11.6c-0.7,0-1.4,0-2.1,0c0,0.6,0,1.1,0,1.7
	c-0.1,0-0.3,0-0.4,0c-3,2.1-8.6,1.1-11.6,3.3c-1.6,1.3-2,3.4-3.7,4.6c0.2,1.3,0.5,2.1,1.2,2.9c-0.4,0.6-0.8,1.1-1.2,1.7
	c-1.9,0.4-6.2,0.6-7.8,1.7c-0.3,0-0.6,0-0.8,0c0.1,1.5,0,1.4,0.8,2.1c-0.7,4-7.3,8.2-11.1,9.1c-0.6,0.3-1.7,0.2-2.5-0.4
	c-0.3,0-0.6,0-0.8,0c0.3-1.3,0.5-2.5,1.2-3.3c0-0.3,0-0.6,0-0.8c0.4,0,0.8,0,1.2,0c-0.1-3.7-1.2-5.4-2.1-7.9c-1.2-0.1-0.6-0.3-1.2,0
	c-1.1,0.5-1.3,1.3-2.1,2.1c0,0.1,0,0.3,0,0.4c-0.1,0-0.3,0-0.4,0c0.5-2.4,2.9-4.9,0.8-7.9c-0.7-1.2-2.3-1.2-3.3-2.1
	c-1.6,0-3.1-0.1-3.7,0.8c0.1,0.4,0.3,0.8,0.4,1.2c-0.6,0.1-1.1,0.3-1.7,0.4c-1.2,0.9-2.1,3.7-2.5,5.4c-1.2,4.7,4,10.3-0.8,12.9
	c-0.4,0.3-0.1,0.2-0.8,0.4c-2.2-3.7-3.9-12.6-0.4-17c-0.5-1.4,0.1-0.8-1.2-0.8c0.2-0.5,0.5-1.3,0.8-1.7c1.5-2.4,7.1-2.7,11.1-2.5
	c-0.6-1.4-1.1-1.1-1.2-3.3c-1.1,0.1-2.2,0.3-3.3,0.4c0-0.4,0-0.8,0-1.2c-2.6,0.1-5.3,0.8-7,2.1c-2.1-0.6-1.8-1.8-4.5-2.1
	c0.7-0.7,1.4-1.4,2.1-2.1c0-0.3,0-0.6,0-0.8c-3.9,0.6-6.2,5.2-9.5,5c-1.3-0.6,0-0.2-0.8-1.2c-0.6-0.3-1.8,0.1-2.5,0.8
	c-0.3,0-0.6,0-0.8,0c0-0.1,0-0.3,0-0.4c1.3-0.9,2-3,3.3-3.7c1.4-0.8,2.9-1,4.1-1.7c-1.8-2.9-6-0.1-7.8-0.8c-0.3-0.4-0.6-0.8-0.8-1.2
	c-2.8-1.4-6-1.3-9.1-1.7c0-2.3-0.3-2.2-1.2-3.3c-0.3,0-0.6,0-0.8,0c0,0.7,0,1.4,0,2.1c-25.5-0.1-48.7-2-69-7.5
	c-5.1-1.4-15.9-2-19.4-4.6c-0.8,0-1.7,0-2.5,0c0.2,0.5,0.5,1.3,0.8,1.7C16.5,5,13.6,2,11.1,1l-0.3-0.2l0,0.1c-0.1,0-0.3-0.1-0.4-0.1
	c0,0.5,0,1,0,1.5L3.7,26.2C3.4,26.6,3.1,27,3,27.4c-0.6,1.4-0.4,2.6-0.1,3.7L2,36.5c-1,1.4-2,1.6-1.1,5c0.6,2.5-1.3,4.2-0.8,6.2
	c0.4,0.4,0.8,0.8,1.2,1.2c0.6,1.1,1.3,3.9,1.7,5c0.8,2.8-0.6,4.2,1.7,5.4c-0.5,1-0.4,0.8-1.2,1.2c0.4,3.8,4.8,7.6,2.9,10.4
	c0,0.6,0,1.1,0,1.7c0.5,0.8,1.6,0,2.5,0.4c2.2,1,2.7,3.5,5.4,4.1c0,0.6,0,1.1,0,1.7c3.9,0.7,2.1,3.3,3.7,6.2
	c1.7,1.4,6.7,1.6,9.5,1.7c0,0.4,0,0.8,0,1.2c8.4,4.2,14.6,10.1,27.3,10.4c0-0.8,0-1.7,0-2.5c1.7,0.2,5.2,0.4,6.6,1.2
	c0.4,0.2,6.5,6.3,6.6,6.6c0.7,2-0.2,3.5,0.8,5c1.8,1.1,3.6,2.2,5.4,3.3c2-0.4,2.9-2.7,3.7-4.1c6.6,0.3,6.2,3.9,8.7,8.3
	c0.7,1.3,3,2.5,3.7,3.7c0.1,1.4,0.3,2.8,0.4,4.1c1.9,3.1,5.7,2.5,8.7,4.6c0.4,0,0.8,0,1.2,0c-0.3-0.7-0.1-0.4-0.4-0.8
	c0-3,0-6.1,0-9.1c0.9-1.4,4.3-2,5.8-2.9c2.8-1.7,5.4-5.3,8.7-6.2c4.2-1.2,7.9,1.7,10.7,0c0.8,1.3,1.5,1.9,2.5,2.9
	c1.6-0.2,1.7-0.3,2.5-1.2c0.4,0.7,0,0,0,1.2c0.7-0.3,0.4-0.1,0.8-0.4c1.3-0.6,1.1-0.3,1.2-2.1c0.6,0.5,1.5,1.1,2.1,1.7
	c1,0,1.5-0.1,2.1-0.4c0.3-0.4,0.1-0.1,0.4-0.8c-1-0.5-1.3-0.7-2.9-0.8c0.8-2.2,1.6-1.9,0-3.7c2.2-0.7,5.3,0,6.2-2.1
	c0.5,0.8,0.2,0.7,0,1.7c4.1-0.3,10-2.9,11.6,1.7c2.2-0.2,3.9-0.6,4.5-2.5c2.6,0.2,5.3,2.7,7,4.1c0.9,1.4-0.2,3.9,0.4,5.8
	c1.4,4.5,5.9,8.3,9.5,10.8c0,0.6,0,1.1,0,1.7c1.4-0.1,2.1-0.2,2.9-0.8c0.1,0,0.3,0,0.4,0c-0.6,0.8-1.6,1.5-2.5,2.1
	c0,0.3,0,0.6,0,0.8c2.5-0.5,2.7-2.2,4.1-3.7c-0.3-4.5-0.7-9-2.5-12c-0.4-0.7-1.7-1.8-2.1-2.5c0.1-0.4,0.8-0.9,0.4-1.7
	c-0.7-0.6-1.4-1.1-2.1-1.7c-1.7-2.4-3.2-5.6-3.7-9.1c-0.7-4.7,3.1-6.9,5-9.1c0.8-1,2.4-2.7,2.9-3.7c0-0.7,0-1.4,0-2.1
	c0.8-1.5,2.5-0.6,3.7-1.7c0.1-0.8,0.3-1.7,0.4-2.5c0.9-1.5,4.4-3,5.8-4.1c-0.5-1.7,0.1-0.8-1.6-0.8c0.1-0.1,0.3-0.3,0.4-0.4
	c0.5-0.9,2.1-1.6,2.9-2.1c-0.2-2.2-0.9-5-2.5-7.1c-0.3-0.4-1.3,0-1.7-0.4c-1.2-1.3-0.2-3.8-1.6-5c0-0.4,0-0.8,0-1.2
	c0.5,0.6,0.7,1.5,1.2,2.1c0.3,0,0.6,0,0.8,0c0.5,1-0.6,1.9,0,2.9c0,0.3,0,0.6,0,0.8c0.4,0,0.8,0,1.2,0c0.5-4.4,3.4-8.3-0.8-10.8
	c0-0.1,0-0.3,0-0.4c1.2,0.5,0.8,0.1,1.2,1.2c2.9-0.6,4.5-6.4,2.5-9.1c0.9-1,1.4-2.6,2.5-3.3c1-0.7,10.2-4.8,11.1-5
	c-0.2-0.9-0.1-0.8-0.4-1.2c-0.3-1-0.4-0.9-0.8-1.7c-0.4,0-0.8,0-1.2,0c0.4,1.1,0.6,0.9,1.2,1.7c-0.1,0-0.3,0-0.4,0
	c-0.1,0.1-0.3,0.3-0.4,0.4c-0.8-0.8-1.7-1.7-2.5-2.5c0-1.4-0.1-3.3,0.4-4.2c0.2-4.7,4.1-3.3,5-7.1c1.5,0.3,2.6-1.5,4.1-2.5
	c0-1.2,0-2.5,0-3.7C206,15.8,205.4,15.8,204.9,15.8z"/>
</svg>
