<svg xmlns="http://www.w3.org/2000/svg" version="1.1" id="Layer_1" x="0px" y="0px" viewBox="0 0 78 41" xml:space="preserve"><path d="M36 22.1L42.3 22.1C42.9 22.1 43.3 21.7 43.3 21.1L43.3 15.2C43.3 12.9 41.4 11 39.2 11 37 11 35 12.9 35 15.2L35 21.1C35 21.6 35.5 22.1 36 22.1ZM37 15.2C37 14 38 13 39.1 13 40.2 13 41.2 14 41.2 15.2L41.2 20.1 37 20.1 37 15.2ZM25.2 29.8C24.6 29.8 24.2 30.2 24.2 30.8L24.2 34.5C24.2 35.1 24.6 35.5 25.2 35.5 25.8 35.5 26.2 35.1 26.2 34.5L26.2 30.8C26.2 30.2 25.7 29.8 25.2 29.8ZM25.2 22.6C24.6 22.6 24.2 23 24.2 23.6L24.2 27.3C24.2 27.9 24.6 28.3 25.2 28.3 25.8 28.3 26.2 27.9 26.2 27.3L26.2 23.6C26.2 23.1 25.7 22.6 25.2 22.6ZM25.2 15.4C24.6 15.4 24.2 15.8 24.2 16.4L24.2 20.1C24.2 20.7 24.6 21.1 25.2 21.1 25.8 21.1 26.2 20.7 26.2 20.1L26.2 16.4C26.2 15.9 25.7 15.4 25.2 15.4ZM21.2 29.8C20.6 29.8 20.2 30.2 20.2 30.8L20.2 34.5C20.2 35.1 20.6 35.5 21.2 35.5 21.8 35.5 22.2 35.1 22.2 34.5L22.2 30.8C22.2 30.2 21.7 29.8 21.2 29.8ZM21.2 22.6C20.6 22.6 20.2 23 20.2 23.6L20.2 27.3C20.2 27.9 20.6 28.3 21.2 28.3 21.8 28.3 22.2 27.9 22.2 27.3L22.2 23.6C22.2 23.1 21.7 22.6 21.2 22.6ZM21.2 15.4C20.6 15.4 20.2 15.8 20.2 16.4L20.2 20.1C20.2 20.7 20.6 21.1 21.2 21.1 21.8 21.1 22.2 20.7 22.2 20.1L22.2 16.4C22.2 15.9 21.7 15.4 21.2 15.4ZM17.2 29.8C16.6 29.8 16.2 30.2 16.2 30.8L16.2 34.5C16.2 35.1 16.6 35.5 17.2 35.5 17.8 35.5 18.2 35.1 18.2 34.5L18.2 30.8C18.2 30.2 17.8 29.8 17.2 29.8ZM17.2 22.6C16.6 22.6 16.2 23 16.2 23.6L16.2 27.3C16.2 27.9 16.6 28.3 17.2 28.3 17.8 28.3 18.2 27.9 18.2 27.3L18.2 23.6C18.2 23.1 17.8 22.6 17.2 22.6ZM17.2 15.4C16.6 15.4 16.2 15.8 16.2 16.4L16.2 20.1C16.2 20.7 16.6 21.1 17.2 21.1 17.8 21.1 18.2 20.7 18.2 20.1L18.2 16.4C18.2 15.9 17.8 15.4 17.2 15.4ZM13.2 29.8C12.6 29.8 12.2 30.2 12.2 30.8L12.2 34.5C12.2 35.1 12.6 35.5 13.2 35.5 13.8 35.5 14.2 35.1 14.2 34.5L14.2 30.8C14.2 30.2 13.8 29.8 13.2 29.8ZM13.2 22.6C12.6 22.6 12.2 23 12.2 23.6L12.2 27.3C12.2 27.9 12.6 28.3 13.2 28.3 13.8 28.3 14.2 27.9 14.2 27.3L14.2 23.6C14.2 23.1 13.8 22.6 13.2 22.6ZM13.2 15.4C12.6 15.4 12.2 15.8 12.2 16.4L12.2 20.1C12.2 20.7 12.6 21.1 13.2 21.1 13.8 21.1 14.2 20.7 14.2 20.1L14.2 16.4C14.2 15.9 13.8 15.4 13.2 15.4ZM9.2 29.8C8.6 29.8 8.2 30.2 8.2 30.8L8.2 34.5C8.2 35.1 8.6 35.5 9.2 35.5 9.8 35.5 10.2 35.1 10.2 34.5L10.2 30.8C10.2 30.2 9.8 29.8 9.2 29.8ZM9.2 22.6C8.6 22.6 8.2 23 8.2 23.6L8.2 27.3C8.2 27.9 8.6 28.3 9.2 28.3 9.8 28.3 10.2 27.9 10.2 27.3L10.2 23.6C10.2 23.1 9.8 22.6 9.2 22.6ZM9.2 15.4C8.6 15.4 8.2 15.8 8.2 16.4L8.2 20.1C8.2 20.7 8.6 21.1 9.2 21.1 9.8 21.1 10.2 20.7 10.2 20.1L10.2 16.4C10.2 15.9 9.8 15.4 9.2 15.4ZM69.4 29.8C68.8 29.8 68.4 30.2 68.4 30.8L68.4 34.5C68.4 35.1 68.8 35.5 69.4 35.5 70 35.5 70.4 35.1 70.4 34.5L70.4 30.8C70.4 30.2 69.9 29.8 69.4 29.8ZM69.4 22.6C68.8 22.6 68.4 23 68.4 23.6L68.4 27.3C68.4 27.9 68.8 28.3 69.4 28.3 70 28.3 70.4 27.9 70.4 27.3L70.4 23.6C70.4 23.1 69.9 22.6 69.4 22.6ZM69.4 15.4C68.8 15.4 68.4 15.8 68.4 16.4L68.4 20.1C68.4 20.7 68.8 21.1 69.4 21.1 70 21.1 70.4 20.7 70.4 20.1L70.4 16.4C70.4 15.9 69.9 15.4 69.4 15.4ZM65.4 29.8C64.8 29.8 64.4 30.2 64.4 30.8L64.4 34.5C64.4 35.1 64.8 35.5 65.4 35.5 66 35.5 66.4 35.1 66.4 34.5L66.4 30.8C66.4 30.2 65.9 29.8 65.4 29.8ZM65.4 22.6C64.8 22.6 64.4 23 64.4 23.6L64.4 27.3C64.4 27.9 64.8 28.3 65.4 28.3 66 28.3 66.4 27.9 66.4 27.3L66.4 23.6C66.4 23.1 65.9 22.6 65.4 22.6ZM65.4 15.4C64.8 15.4 64.4 15.8 64.4 16.4L64.4 20.1C64.4 20.7 64.8 21.1 65.4 21.1 66 21.1 66.4 20.7 66.4 20.1L66.4 16.4C66.4 15.9 65.9 15.4 65.4 15.4ZM61.4 29.8C60.8 29.8 60.4 30.2 60.4 30.8L60.4 34.5C60.4 35.1 60.8 35.5 61.4 35.5 62 35.5 62.4 35.1 62.4 34.5L62.4 30.8C62.4 30.2 62 29.8 61.4 29.8ZM61.4 22.6C60.8 22.6 60.4 23 60.4 23.6L60.4 27.3C60.4 27.9 60.8 28.3 61.4 28.3 62 28.3 62.4 27.9 62.4 27.3L62.4 23.6C62.4 23.1 62 22.6 61.4 22.6ZM61.4 15.4C60.8 15.4 60.4 15.8 60.4 16.4L60.4 20.1C60.4 20.7 60.8 21.1 61.4 21.1 62 21.1 62.4 20.7 62.4 20.1L62.4 16.4C62.4 15.9 62 15.4 61.4 15.4ZM57.4 29.8C56.8 29.8 56.4 30.2 56.4 30.8L56.4 34.5C56.4 35.1 56.8 35.5 57.4 35.5 58 35.5 58.4 35.1 58.4 34.5L58.4 30.8C58.4 30.2 58 29.8 57.4 29.8ZM57.4 22.6C56.8 22.6 56.4 23 56.4 23.6L56.4 27.3C56.4 27.9 56.8 28.3 57.4 28.3 58 28.3 58.4 27.9 58.4 27.3L58.4 23.6C58.4 23.1 58 22.6 57.4 22.6ZM57.4 15.4C56.8 15.4 56.4 15.8 56.4 16.4L56.4 20.1C56.4 20.7 56.8 21.1 57.4 21.1 58 21.1 58.4 20.7 58.4 20.1L58.4 16.4C58.4 15.9 58 15.4 57.4 15.4ZM53.4 29.8C52.8 29.8 52.4 30.2 52.4 30.8L52.4 34.5C52.4 35.1 52.8 35.5 53.4 35.5 54 35.5 54.4 35.1 54.4 34.5L54.4 30.8C54.4 30.2 54 29.8 53.4 29.8ZM53.4 22.6C52.8 22.6 52.4 23 52.4 23.6L52.4 27.3C52.4 27.9 52.8 28.3 53.4 28.3 54 28.3 54.4 27.9 54.4 27.3L54.4 23.6C54.4 23.1 54 22.6 53.4 22.6ZM53.4 15.4C52.8 15.4 52.4 15.8 52.4 16.4L52.4 20.1C52.4 20.7 52.8 21.1 53.4 21.1 54 21.1 54.4 20.7 54.4 20.1L54.4 16.4C54.4 15.9 54 15.4 53.4 15.4ZM76.2 38.1L74.5 38.1 74.5 7.2C74.5 6.6 74.1 6.2 73.5 6.2L49.6 6.2 49.6 1.2C49.6 0.6 49.2 0.2 48.6 0.2L29.6 0.2C29 0.2 28.6 0.6 28.6 1.2L28.6 6.2 4.8 6.2C4.2 6.2 3.8 6.6 3.8 7.2L3.8 38.1 1.8 38.1C1.2 38.1 0.8 38.5 0.8 39.1 0.8 39.7 1.2 40.1 1.8 40.1L76.3 40.1C76.9 40.1 77.3 39.7 77.3 39.1 77.3 38.5 76.8 38.1 76.2 38.1ZM5.8 12.8L28.7 12.8 28.7 38.1 5.8 38.1 5.8 12.8 5.8 12.8ZM41.1 38.1L37.2 38.1 37.2 32.9 41.1 32.9 41.1 38.1ZM49.6 38.1L49.6 12.8 72.5 12.8 72.5 38.1 49.6 38.1ZM72.5 8.2L72.5 10.8 49.6 10.8 49.6 8.2 72.5 8.2ZM30.6 2.2L47.6 2.2 47.6 38.1 43.1 38.1 43.1 31.9C43.1 31.3 42.7 30.9 42.1 30.9L36.2 30.9C35.6 30.9 35.2 31.3 35.2 31.9L35.2 38.1 30.6 38.1 30.6 2.2ZM5.8 8.2L28.7 8.2 28.7 10.8 5.8 10.8 5.8 8.2Z"/></svg>