<?xml version="1.0" encoding="utf-8"?>
<svg version="1.1" id="Layer_1" xmlns="http://www.w3.org/2000/svg" xmlns:xlink="http://www.w3.org/1999/xlink" x="0px" y="0px" viewBox="0 0 90 70" style="enable-background:new 0 0 90 70;" xml:space="preserve">
<path d="M63.098,16.326 C63.098,16.561 63.072,16.786 63.063,17.017 C68.274,21.671 71.672,28.288 72.096,35.706 C72.778,35.628 73.463,35.577 74.166,35.577 C74.227,35.577 74.291,35.587 74.354,35.587 C73.856,26.792 69.495,19.031 62.922,13.964 C63.026,14.739 63.098,15.525 63.098,16.326 Z"></path>
<path d="M57.75,61.244 C53.943,63.275 49.609,64.435 45.001,64.435 C40.391,64.435 36.055,63.275 32.248,61.244 C31.929,61.932 31.568,62.592 31.169,63.232 C35.3,65.439 40.005,66.699 45.003,66.699 C50.002,66.699 54.707,65.439 58.836,63.232 C58.435,62.598 58.072,61.932 57.75,61.244 Z"></path>
<path d="M15.832,35.578 C16.537,35.578 17.227,35.629 17.909,35.707 C18.332,28.291 21.728,21.674 26.94,17.019 C26.93,16.786 26.904,16.561 26.904,16.326 C26.904,15.526 26.973,14.739 27.077,13.97 C20.507,19.035 16.145,26.795 15.646,35.59 C15.709,35.588 15.771,35.578 15.832,35.578 Z"></path>
<path d="M45.001,32.155 C36.272,32.155 29.169,25.055 29.169,16.324 C29.17,7.59 36.274,0.492 45.001,0.492 C53.732,0.492 60.83,7.593 60.83,16.324 C60.83,25.058 53.732,32.155 45.001,32.155 Z M45.001,2.204 C37.217,2.204 30.881,8.54 30.881,16.326 C30.881,24.113 37.217,30.446 45.001,30.446 C52.787,30.446 59.121,24.113 59.121,16.326 C59.121,8.54 52.787,2.204 45.001,2.204 Z"></path>
<path d="M47.394,16.36 C49.155,15.174 50.363,12.844 50.363,10.745 C50.363,7.787 47.962,5.389 45.003,5.389 C42.045,5.389 39.643,7.788 39.643,10.745 C39.643,12.845 40.851,15.176 42.61,16.36 C38.408,17.423 35.295,21.068 35.295,23.774 C35.295,26.964 54.711,26.964 54.711,23.774 C54.709,21.068 51.599,17.424 47.394,16.36 Z M45.001,26.164 L42.28,23.446 L44.571,17.908 L44.546,17.908 L43.659,16.887 C44.091,17.044 44.542,17.133 45.004,17.133 C45.466,17.133 45.914,17.046 46.345,16.889 L45.462,17.909 L45.434,17.909 L47.727,23.447 L45.001,26.164 Z"></path>
<path d="M74.166,37.848 C65.43,37.848 58.336,44.952 58.336,53.676 C58.336,62.41 65.43,69.508 74.166,69.508 C82.896,69.508 90,62.404 90,53.676 C90,44.946 82.896,37.848 74.166,37.848 Z M80.943,64.709 L80.332,63.643 L79.719,63.991 L80.326,65.054 C78.578,65.999 76.623,66.583 74.525,66.642 L74.525,65.382 L73.812,65.382 L73.812,66.642 C71.707,66.583 69.751,65.999 68.012,65.054 L68.62,63.991 L68.007,63.643 L67.387,64.713 C65.648,63.647 64.199,62.192 63.132,60.465 L64.204,59.84 L63.85,59.232 L62.79,59.836 C61.846,58.092 61.259,56.142 61.196,54.035 L62.464,54.035 L62.464,53.322 L61.196,53.322 C61.259,51.218 61.844,49.262 62.79,47.516 L63.85,48.128 L64.204,47.514 L63.132,46.891 C64.198,45.156 65.643,43.71 67.376,42.642 L68.001,43.71 L68.616,43.361 L68.007,42.299 C69.753,41.352 71.71,40.772 73.812,40.713 L73.812,41.97 L74.103,41.97 L72.177,45.815 L73.458,45.815 L73.458,53.263 L69.462,55.575 L68.82,54.466 L66.37,58.179 L70.819,57.913 L70.169,56.805 L74.519,54.288 C74.548,54.27 74.548,54.228 74.58,54.216 C74.654,54.153 74.684,54.087 74.736,54.003 C74.785,53.925 74.826,53.857 74.836,53.761 C74.84,53.729 74.873,53.71 74.873,53.673 L74.873,45.817 L76.152,45.817 L74.234,41.972 L74.515,41.972 L74.519,40.714 C76.619,40.774 78.576,41.359 80.322,42.302 L79.709,43.363 L80.326,43.713 L80.941,42.644 C82.679,43.709 84.129,45.163 85.195,46.893 L84.119,47.516 L84.474,48.125 L85.533,47.516 C86.482,49.264 87.064,51.217 87.127,53.319 L85.873,53.319 L85.873,54.032 L87.133,54.032 C87.069,56.137 86.485,58.093 85.539,59.837 L84.478,59.225 L84.13,59.843 L85.198,60.466 C84.131,62.191 82.682,63.641 80.943,64.709 Z"></path>
<path d="M15.832,69.508 C7.103,69.508 -1.77635684e-15,62.41 -1.77635684e-15,53.678 C-1.77635684e-15,44.947 7.103,37.848 15.832,37.848 C24.564,37.848 31.663,44.947 31.663,53.678 C31.666,62.41 24.564,69.508 15.832,69.508 Z M15.832,39.557 C8.048,39.557 1.712,45.89 1.712,53.676 C1.712,61.461 8.048,67.799 15.832,67.799 C23.618,67.799 29.954,61.461 29.954,53.676 C29.954,45.89 23.618,39.557 15.832,39.557 Z"></path>
<path d="M17.251,52.004 C15.101,51.199 14.209,50.662 14.209,49.834 C14.209,49.121 14.744,48.406 16.386,48.406 C18.213,48.406 19.375,48.994 20.032,49.273 L20.768,46.408 C19.931,46.004 18.79,45.652 17.097,45.572 L17.097,43.343 L14.615,43.343 L14.615,45.745 C11.907,46.28 10.341,48.028 10.341,50.255 C10.341,52.712 12.189,53.979 14.893,54.894 C16.768,55.521 17.579,56.134 17.579,57.091 C17.579,58.106 16.591,58.661 15.147,58.661 C13.501,58.661 12.002,58.128 10.945,57.548 L10.188,60.511 C11.146,61.064 12.793,61.523 14.491,61.599 L14.491,64.005 L16.972,64.005 L16.972,61.42 C19.882,60.916 21.479,58.988 21.479,56.738 C21.479,54.461 20.262,53.068 17.251,52.004 Z"></path>
</svg>
