<?xml version="1.0" encoding="utf-8"?>
<!-- Generator: Adobe Illustrator 19.2.1, SVG Export Plug-In . SVG Version: 6.00 Build 0)  -->
<svg version="1.1" id="Layer_1" xmlns="http://www.w3.org/2000/svg" xmlns:xlink="http://www.w3.org/1999/xlink" x="0px" y="0px"
	 viewBox="0 0 92.7 50.9" style="enable-background:new 0 0 92.7 50.9;" xml:space="preserve">
<polygon points="14.7,0 0,0 0,3 0,9.7 0,50.9 1.2,50.9 1.2,9.7 14.7,9.7 "/>
<path d="M36.9,25.7V15.3h1.3v-2.5H3.3v2.5h2.2v35.6h6.3h1.8h15.8h1.2H34h2.9h54.9V28.2h1v-2.5H36.9z M21.8,18.7h5.2v4.6h-5.2V18.7z
	 M15.2,18.7h5.2v4.6h-5.2C15.2,23.4,15.2,18.7,15.2,18.7z M8.5,23.4v-4.6h5.2v4.6H8.5z M13.5,49.8V34.2h15.8v15.6H13.5z M33.6,23.4
	h-5.2v-4.6h5.2V23.4z M51.3,43.5h-13v-9.3h13V43.5z M71.6,43.5H54.7v-9.3h16.9L71.6,43.5L71.6,43.5z M88.1,43.5H75v-9.3h13.1V43.5z"
	/>
</svg>
