<svg xmlns="http://www.w3.org/2000/svg" xmlns:xlink="http://www.w3.org/1999/xlink"><symbol viewBox="0 0 48 48" id="building"><path d="M35.8 48H1c-.6 0-1-.4-1-1V23c0-.4.2-.7.6-.9l22.8-10.3c.2-.1.5-.1.7 0l12 4.2c.4.1.7.5.7.9V47c0 .6-.4 1-1 1zM2 46h32.8V17.6l-11-3.8L2 23.6V46z"/><path d="M23.7 48c-.6 0-1-.4-1-1V13.5c0-.6.4-1 1-1s1 .4 1 1V47c0 .6-.4 1-1 1zM4.5 28c-.4 0-.8-.3-1-.7-.2-.5.1-1.1.7-1.3l14.2-4.4c.5-.2 1.1.1 1.3.7.2.5-.1 1.1-.7 1.3L4.8 28h-.3zM4.5 33.3c-.5 0-.9-.3-1-.8s.2-1.1.8-1.2l14.2-3c.5-.1 1.1.2 1.2.8.1.5-.2 1.1-.8 1.2l-14.2 3h-.2zM4.5 38.5c-.5 0-.9-.4-1-.9s.3-1 .9-1.1L18.6 35c.5-.1 1 .3 1.1.9.1.5-.3 1-.9 1.1L4.5 38.5zM18.7 43.8H4.5c-.6 0-1-.4-1-1s.4-1 1-1h14.2c.6 0 1 .4 1 1s-.4 1-1 1z"/><path d="M47 48H31.7c-.6 0-1-.4-1-1s.4-1 1-1H46V6.5L32.4 2.1l-13 5.8v6.7c0 .6-.4 1-1 1s-1-.4-1-1V7.2c0-.4.2-.8.6-.9L31.9.1c.2-.1.5-.1.7-.1l14.7 4.8c.4.2.7.6.7 1V47c0 .6-.4 1-1 1z"/><path d="M41 13.7c-.6 0-1-.4-1-1V8.8c0-.6.4-1 1-1s1 .4 1 1v3.9c0 .6-.4 1-1 1zM41 20.7c-.6 0-1-.4-1-1v-3.9c0-.6.4-1 1-1s1 .4 1 1v3.9c0 .6-.4 1-1 1zM41 27.8c-.6 0-1-.4-1-1v-4c0-.6.4-1 1-1s1 .4 1 1v4c0 .6-.4 1-1 1zM41 34.8c-.6 0-1-.4-1-1v-3.9c0-.6.4-1 1-1s1 .4 1 1v3.9c0 .6-.4 1-1 1zM41 41.8c-.6 0-1-.4-1-1v-3.9c0-.6.4-1 1-1s1 .4 1 1v3.9c0 .6-.4 1-1 1z"/></symbol><symbol viewBox="0 0 100 71.482" id="bus"><circle cx="20.848" cy="22.729" r="3.24"/><circle cx="5.952" cy="36.397" r="2.141"/><path d="M2.853 39.595H8.63c.024 0 1.606-.144 1.877-.168l3.42-10.646c.046-.145.126-.252.202-.36.055-.072.107-.147.17-.214.61-.673 1.502-1.16 2.77-1.16h8.097c2.7 0 3.78 2.16 3.78 3.78v9.99c0 .745-.604 1.348-1.35 1.348-.746 0-1.35-.603-1.35-1.35v-9.447h-1.08v25.105a1.89 1.89 0 0 1-3.78 0V42.164h-1.08v14.31a1.89 1.89 0 0 1-3.78 0V31.366h-.59l-2.825 8.79a1.28 1.28 0 0 1-.808.846l.01.01-3.457.993V57.04a1.26 1.26 0 0 1-1.263 1.257 1.258 1.258 0 0 1-1.256-1.258v-7.51h-.985v7.51c0 .693-.562 1.257-1.256 1.257a1.263 1.263 0 0 1-1.263-1.258V42.994h-.968v4.758c0 .52-.423.942-.94.942A.932.932 0 0 1 0 47.752V42.34c0-1.516 1.334-2.745 2.853-2.745z"/><circle cx="70.98" cy="20.282" r="3.24"/><path d="M28.947 65.928v-7.566H0V71.482h99.962v-5.554zM58.907 0c.092 0 .186.004.275.004.09 0 .182-.004.274-.004h-.55z"/><path d="M99.995 32.856l-4.06-4.062v-.005h-5.75l-4.07 4.07h-.037v-3l-2.62-20.114c-.71-3.645-3.033-5.098-6.51-6.547C73.506 1.763 65.28.056 59.183.003 53.1.057 44.872 1.764 41.452 3.2c-3.503 1.448-5.827 2.9-6.55 6.546L32.285 29.86v27.75h4.51v4.33c-.006 5.32 7.754 5.32 7.746 0v-4.33H73.82v4.33c.004 5.32 7.766 5.32 7.75 0v-4.33h4.508V38.605h.038l4.07 4.07v-.007h5.743v.006l.004-.006L100 38.604v-5.748h-.005zM48.107 5.09H70.26c2.175-.004 2.175 3.264 0 3.274H48.106c-2.166-.01-2.166-3.278 0-3.273zm-7.42 43.83a3.757 3.757 0 0 1-3.746-3.75c.01-2.042 1.678-3.707 3.746-3.707a3.714 3.714 0 0 1 3.71 3.708 3.736 3.736 0 0 1-3.71 3.75zm26.58-24.214c-1.622 0-2.615 1.047-2.99 2.35v.047H39.83c-1.918.017-2.324-1.372-2.147-2.763l1.365-9.755c.293-1.762.896-2.93 3.2-2.948h33.866c2.317.017 2.92 1.188 3.2 2.948L80.5 24.34c.188 1.39-.216 2.78-2.145 2.763h-.672v-.048c-.386-1.37-1.44-2.352-2.954-2.352l-7.464.003zM77.714 48.92a3.762 3.762 0 0 1-3.747-3.75 3.74 3.74 0 0 1 3.747-3.707 3.715 3.715 0 0 1 3.71 3.708 3.736 3.736 0 0 1-3.71 3.75z"/></symbol><symbol viewBox="0 0 100 100" id="coach"><path d="M78.5 8.4C75 3.3 69.1 0 62.5 0h-25C26.8 0 18.1 8.7 18.1 19.4h5.6c0-7.7 6.2-13.9 13.9-13.9h25c4.4 0 8.3 2 10.8 5.2L70.6 12l5 3.6 5 3.6.6-6.2.6-6.2-3.3 1.6zM77.8 80.6c0 7.7-6.2 13.9-13.9 13.9h-25c-4.4 0-8.3-2-10.8-5.2l2.7-1.2-5-3.6-5-3.6-.6 6.2-.6 6.2 3.5-1.5c3.5 5.1 9.4 8.4 16 8.4h25c10.7 0 19.4-8.7 19.4-19.4-.2-.2-5.7-.2-5.7-.2zM47.1 55l-5.4-11.9c0-11.5-9.3-20.8-20.8-20.8S0 31.5 0 43.1c0 6.8 3.3 12.8 8.3 16.6v18.1h22.2v-6.9h2.8c4.6 0 8.3-3.7 8.3-8.3V57h4.2c.8 0 1.4-.6 1.4-1.4 0-.2 0-.4-.1-.6zM32.4 42.9c-1.1 0-2.2-.3-3-.9-.9.6-1.9.9-3 .9s-2.2-.3-3-.9c-.6.7-1.5 1.2-2.3 1.5-1.7.7-3 2.7-3 4.9v5.8h-2V48c0-2.1-.8-3.9-2.4-4.9-.5-.3-.9-.6-1.2-.9l-.1-.1c-.4-.5-.7-1-.8-1.6.4-.1.8-.2 1.3-.2s1.1.1 1.6.3c.3.1.6 0 .7-.3.1-.3 0-.6-.3-.7-.7-.3-1.4-.4-2-.4-.5 0-.9.1-1.4.2 0-2.4 1.9-4.3 4.3-4.3.9 0 1.7-.2 2.4-.6.7.8 1 1.8 1 2.8v.1c0 1-.4 2.1-1.2 2.9-.2.2-.2.6 0 .8.1.1.3.2.4.2.1 0 .3-.1.4-.2.9-.9 1.4-2 1.5-3.2.3-.1.6-.1.9-.1.7 0 1.4.2 2 .5.1 0 .2.1.3.1.2 0 .4-.1.5-.3.1-.3 0-.6-.2-.8-.8-.4-1.7-.6-2.6-.6-.3 0-.6 0-.9.1-.1-1-.5-2-1.2-2.8.7-.5 1.2-1.2 1.6-2 .9.7 2.1 1 3.2 1 .4 0 .8 0 1.2-.1.4 2.7 2.6 4.7 5.4 4.7h.1c1.2 0 2.2.5 3 1.2.1.1.3.2.4.2.2 0 .3-.1.4-.2.2-.2.2-.6 0-.8-1-1-2.3-1.5-3.8-1.5h-.1c-.4 0-.8-.1-1.1-.1.5-.7 1.3-1.3 2.2-1.6.3-.1.5-.4.4-.7-.1-.3-.4-.5-.7-.4-1.2.4-2.2 1.2-2.9 2.2-1.2-.7-2-1.9-2.1-3.3.6-.3 1.1-.6 1.6-1.1.2-.2.2-.6 0-.8-.2-.2-.6-.2-.8 0-.5.5-1 .8-1.6 1-.5.2-1 .3-1.5.3-1 0-2-.4-2.8-1.1.1-.3.1-.7.1-1.1 0-.3-.3-.6-.6-.6s-.6.3-.6.6c0 2.2-1.6 4-3.8 4.3-.1-1.3-.7-2.4-1.6-3.2-.2-.2-.6-.2-.8 0-.2.2-.2.6 0 .8.7.7 1.1 1.5 1.2 2.5-1.8.2-3.4 1.3-4.2 2.8-1-.1-1.9-.6-2.6-1.4-.2-.2-.6-.2-.8 0-.2.2-.3.6 0 .8.8.9 1.8 1.5 3 1.7-.1.5-.2 1-.2 1.5 0 1.1.3 2.1.8 2.9-1 .5-1.9 1.2-2.5 2.3-.2.3-.1.6.2.8.1.1.2.1.3.1.2 0 .4-.1.5-.3.5-.9 1.4-1.6 2.3-1.9l1.2.9c1.3.8 1.9 2 1.9 3.9v6.1h-2c-.4-2.6-1.7-4.8-3.9-6.1-1.8-.8-3.1-2.5-3.3-4.6-.9-1-1.5-2.3-1.5-3.7 0-1.2.4-2.4 1.1-3.3-.2-.7-.3-1.2-.3-1.7 0-2.4 1.6-4.5 3.8-5.2.8-1.9 2.7-3.2 4.9-3.2.4 0 .9.1 1.3.2 1-.9 2.3-1.5 3.7-1.5 1.1 0 2.1.3 3 .9.8-.4 1.6-.6 2.6-.6 1.9 0 3.5.9 4.5 2.4h.4c2.6 0 4.8 1.8 5.3 4.3 2 .8 3.4 2.8 3.4 5.1-.1 3-2.6 5.5-5.6 5.5zm4.8 5.7c-1.3 0-2.4-1.1-2.4-2.4s1.1-2.4 2.4-2.4 2.4 1.1 2.4 2.4-1.1 2.4-2.4 2.4zM52.8 55.6c0 .8.6 1.4 1.4 1.4h4.2v5.6c0 4.6 3.7 8.3 8.3 8.3h2.8v6.9h22.2V59.7c5.1-3.8 8.3-9.8 8.3-16.6 0-11.5-9.3-20.8-20.8-20.8s-20.8 9.3-20.8 20.8L52.9 55c-.1.2-.1.4-.1.6zm9.3-18.3c0-2.3 1.4-4.2 3.4-5.1.5-2.4 2.7-4.3 5.3-4.3h.4c1-1.4 2.6-2.4 4.5-2.4.9 0 1.8.2 2.6.6.9-.6 1.9-.9 3-.9 1.4 0 2.7.6 3.7 1.5.4-.1.8-.2 1.3-.2 2.2 0 4.1 1.3 4.9 3.2 2.2.7 3.8 2.7 3.8 5.2 0 .5-.1 1-.2 1.4.7.9 1.1 2.1 1.1 3.3 0 1.4-.6 2.7-1.5 3.7-.2 2.1-1.5 3.8-3.3 4.6-2.2 1.3-3.5 3.5-3.9 6.1h-2v-6c0-1.9.6-3.1 1.9-3.9.5-.3.9-.6 1.2-.9.9.3 1.8 1 2.3 1.9.1.2.3.3.5.3.1 0 .2 0 .3-.1.3-.2.4-.5.2-.8-.6-1-1.5-1.8-2.5-2.3.5-.8.8-1.8.8-2.9 0-.5-.1-1-.2-1.5 1.2-.2 2.2-.8 3-1.7.2-.2.2-.6 0-.8-.2-.2-.6-.2-.8 0-.7.7-1.6 1.2-2.6 1.4-.8-1.5-2.4-2.6-4.2-2.8.1-1 .6-1.8 1.2-2.5.2-.2.2-.6 0-.8-.2-.2-.6-.2-.8 0-.8.8-1.4 2-1.6 3.2-2.1-.3-3.8-2.1-3.8-4.3 0-.3-.3-.6-.6-.6s-.6.3-.6.6c0 .4 0 .7.1 1.1-.8.7-1.8 1.1-2.8 1.1-.5 0-1-.1-1.5-.3-.6-.2-1.1-.5-1.6-1-.2-.2-.6-.2-.8 0-.2.2-.2.6 0 .8.5.5 1 .8 1.6 1.1-.1 1.4-.9 2.6-2.1 3.3-.7-1-1.7-1.8-2.9-2.2-.3-.1-.6.1-.7.4-.1.3.1.6.4.7.9.3 1.7.9 2.2 1.6-.4.1-.7.1-1.1.1h-.1c-1.5 0-2.8.6-3.8 1.5-.2.2-.2.6 0 .8.1.1.3.2.4.2.1 0 .3-.1.4-.2.8-.8 1.8-1.2 3-1.2h.1c2.8 0 5-2 5.4-4.7.4.1.8.1 1.2.1 1.1 0 2.2-.3 3.2-1 .3.8.9 1.5 1.6 2-.7.8-1.1 1.8-1.2 2.8-.3 0-.6-.1-.9-.1-.9 0-1.7.2-2.6.6-.3.1-.4.5-.2.8.1.2.3.3.5.3.1 0 .2 0 .3-.1.7-.3 1.3-.5 2-.5.3 0 .6 0 .9.1.1 1.2.6 2.3 1.5 3.2.1.1.3.2.4.2.1 0 .3-.1.4-.2.2-.2.2-.6 0-.8-.8-.8-1.2-1.8-1.2-2.9V37c0-1 .3-2 1-2.8.7.4 1.6.6 2.4.6 2.4 0 4.3 1.9 4.3 4.3-.5-.1-.9-.2-1.4-.2-.7 0-1.4.1-2 .4-.3.1-.4.5-.3.7.1.3.5.4.7.3.5-.2 1.1-.3 1.6-.3.4 0 .9.1 1.3.2-.1.6-.4 1.2-.8 1.6l-.1.1c-.3.3-.7.6-1.2.9-1.7 1-2.4 2.7-2.4 4.9v6.1h-2V48c0-2.1-1.3-4.2-3-4.9-.8-.3-1.6-.8-2.3-1.5-.9.6-1.9.9-3 .9s-2.2-.3-3-.9c-.9.6-1.9.9-3 .9-3.2.4-5.7-2.1-5.7-5.2zm-1.7 8.9c0-1.3 1.1-2.4 2.4-2.4s2.4 1.1 2.4 2.4-1.1 2.4-2.4 2.4-2.4-1.1-2.4-2.4z"/></symbol><symbol viewBox="0 0 86.3 87.5" id="finance"><path d="M76.1 17.4c0-1.6-1.6-2-2.8-2.3v4.5c1.3 0 2.8-.6 2.8-2.2zM71.9 7.8c-1.6 0-2.6 1-2.6 1.9 0 1.1.9 1.8 2.6 2.1v-4z"/><path d="M72.5 27.7c7.6 0 13.8-6.2 13.8-13.8S80.1 0 72.5 0c-7.6 0-13.8 6.2-13.8 13.8 0 7.7 6.2 13.9 13.8 13.9zm-6-17.4c0-3.1 2.6-4.7 5.4-4.8V4.3c0-.4.3-.8.7-.8.4 0 .7.4.7.8v1.2c1.8 0 5.4 1.2 5.4 3.4 0 .9-.7 1.4-1.4 1.4-1.5 0-1.5-2.4-4-2.5v4.4c3 .6 5.7 1.5 5.7 5 0 3.1-2.3 4.6-5.7 4.8v1.4c0 .4-.3.8-.7.8-.4 0-.7-.4-.7-.8V22c-3.9-.1-5.8-2.4-5.8-4.2 0-.9.6-1.4 1.4-1.4 2.6 0 .6 3.2 4.4 3.3v-4.8c-3.4-.6-5.4-2.1-5.4-4.6zM16.9 61.6H5c-2.2 0-4 1.8-4 4v17.9c0 2.2 1.8 4 4 4h11.9c2.2 0 4-1.8 4-4v-18c0-2.2-1.8-3.9-4-3.9zM47.7 47.7H35.8c-2.2 0-4 1.8-4 4v31.8c0 2.2 1.8 4 4 4h11.9c2.2 0 4-1.8 4-4V51.6c0-2.2-1.8-3.9-4-3.9zM78.5 31.8H66.6c-2.2 0-4 1.8-4 4v47.6c0 2.2 1.8 4 4 4h11.9c2.2 0 4-1.8 4-4V35.8c0-2.2-1.8-4-4-4zM54.7 20.4l-9.9-2.1c-.8-.2-1.5.1-2 .8-.5.6-.5 1.4-.2 2.1l2.2 4.1L1.1 47.9c-1 .5-1.4 1.7-.9 2.7.4.7 1 1.1 1.8 1.1.3 0 .6-.1.9-.2l43.8-22.7 2 3.8c.3.7 1 1.1 1.8 1.1h.1c.8 0 1.4-.5 1.7-1.2l3.8-9.3c.2-.5.2-1.2-.1-1.7-.3-.6-.8-1-1.3-1.1z"/></symbol><symbol viewBox="0 0 90 67.3" id="quote"><path d="M80.2 0H58.7c-5.4 0-9.8 4.4-9.8 9.8v21.5c0 5.4 4.4 9.8 9.8 9.8h17.6v1.3c0 6.2-5 11.2-11.2 11.2-3.8 0-6.8 3.1-6.8 6.8 0 3.8 3.1 6.8 6.8 6.8C78.8 67.3 90 56.1 90 42.4V9.8C90 4.4 85.6 0 80.2 0zM31.3 0H9.8C4.4 0 0 4.4 0 9.8v21.5c0 5.4 4.4 9.8 9.8 9.8h17.6v1.3c0 6.2-5 11.2-11.2 11.2-3.8 0-6.8 3.1-6.8 6.8 0 3.8 3.1 6.8 6.8 6.8C30 67.2 41.1 56 41.1 42.3V9.8c0-5.4-4.4-9.8-9.8-9.8z"/></symbol><symbol viewBox="0 0 92.7 50.9" id="school"><path d="M14.7 0H0V50.9h1.2V9.7h13.5z"/><path d="M36.9 25.7V15.3h1.3v-2.5H3.3v2.5h2.2v35.6h86.3V28.2h1v-2.5H36.9zm-15.1-7H27v4.6h-5.2v-4.6zm-6.6 0h5.2v4.6h-5.2v-4.6zm-6.7 4.7v-4.6h5.2v4.6H8.5zm5 26.4V34.2h15.8v15.6H13.5zm20.1-26.4h-5.2v-4.6h5.2v4.6zm17.7 20.1h-13v-9.3h13v9.3zm20.3 0H54.7v-9.3h16.9v9.3zm16.5 0H75v-9.3h13.1v9.3z"/></symbol><symbol viewBox="0 0 206.5 129.1" id="usa"><path d="M204.9 15.8c-.5-2-1.4-1.2-2.1-2.5-.9-1.8-.6-4-1.6-5.4-.5-1-1.5-1.2-2.5-1.7-.5.7-.9.8-1.6 1.2-.4-.1-.2.1-.4-.4-1 .1-1 .2-1.7.4-.8 3.1-1.8 8.1-2.1 11.6h-2.1v1.7h-.4c-3 2.1-8.6 1.1-11.6 3.3-1.6 1.3-2 3.4-3.7 4.6.2 1.3.5 2.1 1.2 2.9-.4.6-.8 1.1-1.2 1.7-1.9.4-6.2.6-7.8 1.7h-.8c.1 1.5 0 1.4.8 2.1-.7 4-7.3 8.2-11.1 9.1-.6.3-1.7.2-2.5-.4h-.8c.3-1.3.5-2.5 1.2-3.3v-.8h1.2c-.1-3.7-1.2-5.4-2.1-7.9-1.2-.1-.6-.3-1.2 0-1.1.5-1.3 1.3-2.1 2.1v.4h-.4c.5-2.4 2.9-4.9.8-7.9-.7-1.2-2.3-1.2-3.3-2.1-1.6 0-3.1-.1-3.7.8.1.4.3.8.4 1.2-.6.1-1.1.3-1.7.4-1.2.9-2.1 3.7-2.5 5.4-1.2 4.7 4 10.3-.8 12.9-.4.3-.1.2-.8.4-2.2-3.7-3.9-12.6-.4-17-.5-1.4.1-.8-1.2-.8.2-.5.5-1.3.8-1.7 1.5-2.4 7.1-2.7 11.1-2.5-.6-1.4-1.1-1.1-1.2-3.3-1.1.1-2.2.3-3.3.4v-1.2c-2.6.1-5.3.8-7 2.1-2.1-.6-1.8-1.8-4.5-2.1l2.1-2.1v-.8c-3.9.6-6.2 5.2-9.5 5-1.3-.6 0-.2-.8-1.2-.6-.3-1.8.1-2.5.8h-.8v-.4c1.3-.9 2-3 3.3-3.7 1.4-.8 2.9-1 4.1-1.7-1.8-2.9-6-.1-7.8-.8-.3-.4-.6-.8-.8-1.2-2.8-1.4-6-1.3-9.1-1.7 0-2.3-.3-2.2-1.2-3.3h-.8v2.1c-25.5-.1-48.7-2-69-7.5-5.1-1.4-15.9-2-19.4-4.6h-2.5c.2.5.5 1.3.8 1.7-1.8 3.2-4.7.2-7.2-.8l-.3-.2v.1c-.1 0-.3-.1-.4-.1v1.5L3.7 26.2c-.3.4-.6.8-.7 1.2-.6 1.4-.4 2.6-.1 3.7L2 36.5c-1 1.4-2 1.6-1.1 5 .6 2.5-1.3 4.2-.8 6.2l1.2 1.2c.6 1.1 1.3 3.9 1.7 5 .8 2.8-.6 4.2 1.7 5.4-.5 1-.4.8-1.2 1.2.4 3.8 4.8 7.6 2.9 10.4v1.7c.5.8 1.6 0 2.5.4 2.2 1 2.7 3.5 5.4 4.1v1.7c3.9.7 2.1 3.3 3.7 6.2 1.7 1.4 6.7 1.6 9.5 1.7v1.2c8.4 4.2 14.6 10.1 27.3 10.4v-2.5c1.7.2 5.2.4 6.6 1.2.4.2 6.5 6.3 6.6 6.6.7 2-.2 3.5.8 5l5.4 3.3c2-.4 2.9-2.7 3.7-4.1 6.6.3 6.2 3.9 8.7 8.3.7 1.3 3 2.5 3.7 3.7.1 1.4.3 2.8.4 4.1 1.9 3.1 5.7 2.5 8.7 4.6h1.2c-.3-.7-.1-.4-.4-.8v-9.1c.9-1.4 4.3-2 5.8-2.9 2.8-1.7 5.4-5.3 8.7-6.2 4.2-1.2 7.9 1.7 10.7 0 .8 1.3 1.5 1.9 2.5 2.9 1.6-.2 1.7-.3 2.5-1.2.4.7 0 0 0 1.2.7-.3.4-.1.8-.4 1.3-.6 1.1-.3 1.2-2.1.6.5 1.5 1.1 2.1 1.7 1 0 1.5-.1 2.1-.4.3-.4.1-.1.4-.8-1-.5-1.3-.7-2.9-.8.8-2.2 1.6-1.9 0-3.7 2.2-.7 5.3 0 6.2-2.1.5.8.2.7 0 1.7 4.1-.3 10-2.9 11.6 1.7 2.2-.2 3.9-.6 4.5-2.5 2.6.2 5.3 2.7 7 4.1.9 1.4-.2 3.9.4 5.8 1.4 4.5 5.9 8.3 9.5 10.8v1.7c1.4-.1 2.1-.2 2.9-.8h.4c-.6.8-1.6 1.5-2.5 2.1v.8c2.5-.5 2.7-2.2 4.1-3.7-.3-4.5-.7-9-2.5-12-.4-.7-1.7-1.8-2.1-2.5.1-.4.8-.9.4-1.7-.7-.6-1.4-1.1-2.1-1.7-1.7-2.4-3.2-5.6-3.7-9.1-.7-4.7 3.1-6.9 5-9.1.8-1 2.4-2.7 2.9-3.7v-2.1c.8-1.5 2.5-.6 3.7-1.7.1-.8.3-1.7.4-2.5.9-1.5 4.4-3 5.8-4.1-.5-1.7.1-.8-1.6-.8l.4-.4c.5-.9 2.1-1.6 2.9-2.1-.2-2.2-.9-5-2.5-7.1-.3-.4-1.3 0-1.7-.4-1.2-1.3-.2-3.8-1.6-5v-1.2c.5.6.7 1.5 1.2 2.1h.8c.5 1-.6 1.9 0 2.9v.8h1.2c.5-4.4 3.4-8.3-.8-10.8v-.4c1.2.5.8.1 1.2 1.2 2.9-.6 4.5-6.4 2.5-9.1.9-1 1.4-2.6 2.5-3.3 1-.7 10.2-4.8 11.1-5-.2-.9-.1-.8-.4-1.2-.3-1-.4-.9-.8-1.7h-1.2c.4 1.1.6.9 1.2 1.7h-.4l-.4.4-2.5-2.5c0-1.4-.1-3.3.4-4.2.2-4.7 4.1-3.3 5-7.1 1.5.3 2.6-1.5 4.1-2.5v-3.7c-.6-.1-1.2-.1-1.7-.1z"/></symbol></svg>