<svg xmlns="http://www.w3.org/2000/svg" xmlns:xlink="http://www.w3.org/1999/xlink"><symbol viewBox="0 0 100 71.482" id="bus"><circle cx="20.848" cy="22.729" r="3.24"/><circle cx="5.952" cy="36.397" r="2.141"/><path d="M2.853 39.595H8.63c.024 0 1.606-.144 1.877-.168l3.42-10.646c.046-.145.126-.252.202-.36.055-.072.107-.147.17-.214.61-.673 1.502-1.16 2.77-1.16h8.097c2.7 0 3.78 2.16 3.78 3.78v9.99c0 .745-.604 1.348-1.35 1.348-.746 0-1.35-.603-1.35-1.35v-9.447h-1.08v25.105a1.89 1.89 0 0 1-3.78 0V42.164h-1.08v14.31a1.89 1.89 0 0 1-3.78 0V31.366h-.59l-2.825 8.79a1.28 1.28 0 0 1-.808.846l.01.01-3.457.993V57.04a1.26 1.26 0 0 1-1.263 1.257 1.258 1.258 0 0 1-1.256-1.258v-7.51h-.985v7.51c0 .693-.562 1.257-1.256 1.257a1.263 1.263 0 0 1-1.263-1.258V42.994h-.968v4.758c0 .52-.423.942-.94.942A.932.932 0 0 1 0 47.752V42.34c0-1.516 1.334-2.745 2.853-2.745z"/><circle cx="70.98" cy="20.282" r="3.24"/><path d="M28.947 65.928v-7.566H0V71.482h99.962v-5.554zM58.907 0c.092 0 .186.004.275.004.09 0 .182-.004.274-.004h-.55z"/><path d="M99.995 32.856l-4.06-4.062v-.005h-5.75l-4.07 4.07h-.037v-3l-2.62-20.114c-.71-3.645-3.033-5.098-6.51-6.547C73.506 1.763 65.28.056 59.183.003 53.1.057 44.872 1.764 41.452 3.2c-3.503 1.448-5.827 2.9-6.55 6.546L32.285 29.86v27.75h4.51v4.33c-.006 5.32 7.754 5.32 7.746 0v-4.33H73.82v4.33c.004 5.32 7.766 5.32 7.75 0v-4.33h4.508V38.605h.038l4.07 4.07v-.007h5.743v.006l.004-.006L100 38.604v-5.748h-.005zM48.107 5.09H70.26c2.175-.004 2.175 3.264 0 3.274H48.106c-2.166-.01-2.166-3.278 0-3.273zm-7.42 43.83a3.757 3.757 0 0 1-3.746-3.75c.01-2.042 1.678-3.707 3.746-3.707a3.714 3.714 0 0 1 3.71 3.708 3.736 3.736 0 0 1-3.71 3.75zm26.58-24.214c-1.622 0-2.615 1.047-2.99 2.35v.047H39.83c-1.918.017-2.324-1.372-2.147-2.763l1.365-9.755c.293-1.762.896-2.93 3.2-2.948h33.866c2.317.017 2.92 1.188 3.2 2.948L80.5 24.34c.188 1.39-.216 2.78-2.145 2.763h-.672v-.048c-.386-1.37-1.44-2.352-2.954-2.352l-7.464.003zM77.714 48.92a3.762 3.762 0 0 1-3.747-3.75 3.74 3.74 0 0 1 3.747-3.707 3.715 3.715 0 0 1 3.71 3.708 3.736 3.736 0 0 1-3.71 3.75z"/></symbol><symbol viewBox="0 0 92.7 50.9" id="school"><path d="M14.7 0H0V50.9h1.2V9.7h13.5z"/><path d="M36.9 25.7V15.3h1.3v-2.5H3.3v2.5h2.2v35.6h86.3V28.2h1v-2.5H36.9zm-15.1-7H27v4.6h-5.2v-4.6zm-6.6 0h5.2v4.6h-5.2v-4.6zm-6.7 4.7v-4.6h5.2v4.6H8.5zm5 26.4V34.2h15.8v15.6H13.5zm20.1-26.4h-5.2v-4.6h5.2v4.6zm17.7 20.1h-13v-9.3h13v9.3zm20.3 0H54.7v-9.3h16.9v9.3zm16.5 0H75v-9.3h13.1v9.3z"/></symbol><symbol viewBox="0 0 206.5 129.1" id="usa"><path d="M204.9 15.8c-.5-2-1.4-1.2-2.1-2.5-.9-1.8-.6-4-1.6-5.4-.5-1-1.5-1.2-2.5-1.7-.5.7-.9.8-1.6 1.2-.4-.1-.2.1-.4-.4-1 .1-1 .2-1.7.4-.8 3.1-1.8 8.1-2.1 11.6h-2.1v1.7h-.4c-3 2.1-8.6 1.1-11.6 3.3-1.6 1.3-2 3.4-3.7 4.6.2 1.3.5 2.1 1.2 2.9-.4.6-.8 1.1-1.2 1.7-1.9.4-6.2.6-7.8 1.7h-.8c.1 1.5 0 1.4.8 2.1-.7 4-7.3 8.2-11.1 9.1-.6.3-1.7.2-2.5-.4h-.8c.3-1.3.5-2.5 1.2-3.3v-.8h1.2c-.1-3.7-1.2-5.4-2.1-7.9-1.2-.1-.6-.3-1.2 0-1.1.5-1.3 1.3-2.1 2.1v.4h-.4c.5-2.4 2.9-4.9.8-7.9-.7-1.2-2.3-1.2-3.3-2.1-1.6 0-3.1-.1-3.7.8.1.4.3.8.4 1.2-.6.1-1.1.3-1.7.4-1.2.9-2.1 3.7-2.5 5.4-1.2 4.7 4 10.3-.8 12.9-.4.3-.1.2-.8.4-2.2-3.7-3.9-12.6-.4-17-.5-1.4.1-.8-1.2-.8.2-.5.5-1.3.8-1.7 1.5-2.4 7.1-2.7 11.1-2.5-.6-1.4-1.1-1.1-1.2-3.3-1.1.1-2.2.3-3.3.4v-1.2c-2.6.1-5.3.8-7 2.1-2.1-.6-1.8-1.8-4.5-2.1l2.1-2.1v-.8c-3.9.6-6.2 5.2-9.5 5-1.3-.6 0-.2-.8-1.2-.6-.3-1.8.1-2.5.8h-.8v-.4c1.3-.9 2-3 3.3-3.7 1.4-.8 2.9-1 4.1-1.7-1.8-2.9-6-.1-7.8-.8-.3-.4-.6-.8-.8-1.2-2.8-1.4-6-1.3-9.1-1.7 0-2.3-.3-2.2-1.2-3.3h-.8v2.1c-25.5-.1-48.7-2-69-7.5-5.1-1.4-15.9-2-19.4-4.6h-2.5c.2.5.5 1.3.8 1.7-1.8 3.2-4.7.2-7.2-.8l-.3-.2v.1c-.1 0-.3-.1-.4-.1v1.5L3.7 26.2c-.3.4-.6.8-.7 1.2-.6 1.4-.4 2.6-.1 3.7L2 36.5c-1 1.4-2 1.6-1.1 5 .6 2.5-1.3 4.2-.8 6.2l1.2 1.2c.6 1.1 1.3 3.9 1.7 5 .8 2.8-.6 4.2 1.7 5.4-.5 1-.4.8-1.2 1.2.4 3.8 4.8 7.6 2.9 10.4v1.7c.5.8 1.6 0 2.5.4 2.2 1 2.7 3.5 5.4 4.1v1.7c3.9.7 2.1 3.3 3.7 6.2 1.7 1.4 6.7 1.6 9.5 1.7v1.2c8.4 4.2 14.6 10.1 27.3 10.4v-2.5c1.7.2 5.2.4 6.6 1.2.4.2 6.5 6.3 6.6 6.6.7 2-.2 3.5.8 5l5.4 3.3c2-.4 2.9-2.7 3.7-4.1 6.6.3 6.2 3.9 8.7 8.3.7 1.3 3 2.5 3.7 3.7.1 1.4.3 2.8.4 4.1 1.9 3.1 5.7 2.5 8.7 4.6h1.2c-.3-.7-.1-.4-.4-.8v-9.1c.9-1.4 4.3-2 5.8-2.9 2.8-1.7 5.4-5.3 8.7-6.2 4.2-1.2 7.9 1.7 10.7 0 .8 1.3 1.5 1.9 2.5 2.9 1.6-.2 1.7-.3 2.5-1.2.4.7 0 0 0 1.2.7-.3.4-.1.8-.4 1.3-.6 1.1-.3 1.2-2.1.6.5 1.5 1.1 2.1 1.7 1 0 1.5-.1 2.1-.4.3-.4.1-.1.4-.8-1-.5-1.3-.7-2.9-.8.8-2.2 1.6-1.9 0-3.7 2.2-.7 5.3 0 6.2-2.1.5.8.2.7 0 1.7 4.1-.3 10-2.9 11.6 1.7 2.2-.2 3.9-.6 4.5-2.5 2.6.2 5.3 2.7 7 4.1.9 1.4-.2 3.9.4 5.8 1.4 4.5 5.9 8.3 9.5 10.8v1.7c1.4-.1 2.1-.2 2.9-.8h.4c-.6.8-1.6 1.5-2.5 2.1v.8c2.5-.5 2.7-2.2 4.1-3.7-.3-4.5-.7-9-2.5-12-.4-.7-1.7-1.8-2.1-2.5.1-.4.8-.9.4-1.7-.7-.6-1.4-1.1-2.1-1.7-1.7-2.4-3.2-5.6-3.7-9.1-.7-4.7 3.1-6.9 5-9.1.8-1 2.4-2.7 2.9-3.7v-2.1c.8-1.5 2.5-.6 3.7-1.7.1-.8.3-1.7.4-2.5.9-1.5 4.4-3 5.8-4.1-.5-1.7.1-.8-1.6-.8l.4-.4c.5-.9 2.1-1.6 2.9-2.1-.2-2.2-.9-5-2.5-7.1-.3-.4-1.3 0-1.7-.4-1.2-1.3-.2-3.8-1.6-5v-1.2c.5.6.7 1.5 1.2 2.1h.8c.5 1-.6 1.9 0 2.9v.8h1.2c.5-4.4 3.4-8.3-.8-10.8v-.4c1.2.5.8.1 1.2 1.2 2.9-.6 4.5-6.4 2.5-9.1.9-1 1.4-2.6 2.5-3.3 1-.7 10.2-4.8 11.1-5-.2-.9-.1-.8-.4-1.2-.3-1-.4-.9-.8-1.7h-1.2c.4 1.1.6.9 1.2 1.7h-.4l-.4.4-2.5-2.5c0-1.4-.1-3.3.4-4.2.2-4.7 4.1-3.3 5-7.1 1.5.3 2.6-1.5 4.1-2.5v-3.7c-.6-.1-1.2-.1-1.7-.1z"/></symbol></svg>